<svg width="64" height="10" viewBox="0 0 64 10" fill="none" xmlns="http://www.w3.org/2000/svg">
<path d="M5.928 7.296H2.436L1.836 9H0.408L3.396 0.648H4.98L7.968 9H6.528L5.928 7.296ZM5.544 6.18L4.188 2.304L2.82 6.18H5.544ZM10.6352 0.12V9H9.26719V0.12H10.6352ZM18.4913 5.532C18.4913 5.78 18.4753 6.004 18.4433 6.204H13.3913C13.4313 6.732 13.6273 7.156 13.9793 7.476C14.3313 7.796 14.7633 7.956 15.2753 7.956C16.0113 7.956 16.5313 7.648 16.8353 7.032H18.3112C18.1113 7.64 17.7473 8.14 17.2193 8.532C16.6993 8.916 16.0513 9.108 15.2753 9.108C14.6433 9.108 14.0753 8.968 13.5713 8.688C13.0753 8.4 12.6833 8 12.3953 7.488C12.1153 6.968 11.9753 6.368 11.9753 5.688C11.9753 5.008 12.1113 4.412 12.3833 3.9C12.6633 3.38 13.0513 2.98 13.5473 2.7C14.0513 2.42 14.6273 2.28 15.2753 2.28C15.8993 2.28 16.4553 2.416 16.9433 2.688C17.4313 2.96 17.8113 3.344 18.0833 3.84C18.3553 4.328 18.4913 4.892 18.4913 5.532ZM17.0633 5.1C17.0553 4.596 16.8753 4.192 16.5233 3.888C16.1713 3.584 15.7353 3.432 15.2153 3.432C14.7433 3.432 14.3393 3.584 14.0033 3.888C13.6673 4.184 13.4673 4.588 13.4033 5.1H17.0633ZM22.6695 5.652L24.8055 9H23.2575L21.8295 6.756L20.4855 9H19.0575L21.1935 5.748L19.0575 2.388H20.6055L22.0335 4.632L23.3775 2.388H24.8055L22.6695 5.652ZM25.3698 5.664C25.3698 5 25.5058 4.412 25.7778 3.9C26.0578 3.388 26.4338 2.992 26.9058 2.712C27.3858 2.424 27.9138 2.28 28.4898 2.28C29.0098 2.28 29.4618 2.384 29.8458 2.592C30.2378 2.792 30.5498 3.044 30.7818 3.348V2.388H32.1618V9H30.7818V8.016C30.5498 8.328 30.2338 8.588 29.8338 8.796C29.4338 9.004 28.9778 9.108 28.4658 9.108C27.8978 9.108 27.3778 8.964 26.9058 8.676C26.4338 8.38 26.0578 7.972 25.7778 7.452C25.5058 6.924 25.3698 6.328 25.3698 5.664ZM30.7818 5.688C30.7818 5.232 30.6858 4.836 30.4938 4.5C30.3098 4.164 30.0658 3.908 29.7618 3.732C29.4578 3.556 29.1298 3.468 28.7778 3.468C28.4258 3.468 28.0978 3.556 27.7938 3.732C27.4898 3.9 27.2418 4.152 27.0498 4.488C26.8658 4.816 26.7738 5.208 26.7738 5.664C26.7738 6.12 26.8658 6.52 27.0498 6.864C27.2418 7.208 27.4898 7.472 27.7938 7.656C28.1058 7.832 28.4338 7.92 28.7778 7.92C29.1298 7.92 29.4578 7.832 29.7618 7.656C30.0658 7.48 30.3098 7.224 30.4938 6.888C30.6858 6.544 30.7818 6.144 30.7818 5.688ZM37.2946 2.28C37.8146 2.28 38.2786 2.388 38.6866 2.604C39.1026 2.82 39.4266 3.14 39.6586 3.564C39.8906 3.988 40.0066 4.5 40.0066 5.1V9H38.6506V5.304C38.6506 4.712 38.5026 4.26 38.2066 3.948C37.9106 3.628 37.5066 3.468 36.9946 3.468C36.4826 3.468 36.0746 3.628 35.7706 3.948C35.4746 4.26 35.3266 4.712 35.3266 5.304V9H33.9586V2.388H35.3266V3.144C35.5506 2.872 35.8346 2.66 36.1786 2.508C36.5306 2.356 36.9026 2.28 37.2946 2.28ZM41.2956 5.664C41.2956 5 41.4316 4.412 41.7036 3.9C41.9836 3.388 42.3596 2.992 42.8316 2.712C43.3116 2.424 43.8436 2.28 44.4276 2.28C44.8596 2.28 45.2836 2.376 45.6996 2.568C46.1236 2.752 46.4596 3 46.7076 3.312V0.12H48.0876V9H46.7076V8.004C46.4836 8.324 46.1716 8.588 45.7716 8.796C45.3796 9.004 44.9276 9.108 44.4156 9.108C43.8396 9.108 43.3116 8.964 42.8316 8.676C42.3596 8.38 41.9836 7.972 41.7036 7.452C41.4316 6.924 41.2956 6.328 41.2956 5.664ZM46.7076 5.688C46.7076 5.232 46.6116 4.836 46.4196 4.5C46.2356 4.164 45.9916 3.908 45.6876 3.732C45.3836 3.556 45.0556 3.468 44.7036 3.468C44.3516 3.468 44.0236 3.556 43.7196 3.732C43.4156 3.9 43.1676 4.152 42.9756 4.488C42.7916 4.816 42.6996 5.208 42.6996 5.664C42.6996 6.12 42.7916 6.52 42.9756 6.864C43.1676 7.208 43.4156 7.472 43.7196 7.656C44.0316 7.832 44.3596 7.92 44.7036 7.92C45.0556 7.92 45.3836 7.832 45.6876 7.656C45.9916 7.48 46.2356 7.224 46.4196 6.888C46.6116 6.544 46.7076 6.144 46.7076 5.688ZM55.9444 5.532C55.9444 5.78 55.9284 6.004 55.8964 6.204H50.8444C50.8844 6.732 51.0804 7.156 51.4324 7.476C51.7844 7.796 52.2164 7.956 52.7284 7.956C53.4644 7.956 53.9844 7.648 54.2884 7.032H55.7644C55.5644 7.64 55.2004 8.14 54.6724 8.532C54.1524 8.916 53.5044 9.108 52.7284 9.108C52.0964 9.108 51.5284 8.968 51.0244 8.688C50.5284 8.4 50.1364 8 49.8484 7.488C49.5684 6.968 49.4284 6.368 49.4284 5.688C49.4284 5.008 49.5644 4.412 49.8364 3.9C50.1164 3.38 50.5044 2.98 51.0004 2.7C51.5044 2.42 52.0804 2.28 52.7284 2.28C53.3524 2.28 53.9084 2.416 54.3964 2.688C54.8844 2.96 55.2644 3.344 55.5364 3.84C55.8084 4.328 55.9444 4.892 55.9444 5.532ZM54.5164 5.1C54.5084 4.596 54.3284 4.192 53.9764 3.888C53.6244 3.584 53.1884 3.432 52.6684 3.432C52.1964 3.432 51.7924 3.584 51.4564 3.888C51.1204 4.184 50.9204 4.588 50.8564 5.1H54.5164ZM58.6586 3.348C58.8586 3.012 59.1226 2.752 59.4506 2.568C59.7866 2.376 60.1826 2.28 60.6386 2.28V3.696H60.2906C59.7546 3.696 59.3466 3.832 59.0666 4.104C58.7946 4.376 58.6586 4.848 58.6586 5.52V9H57.2906V2.388H58.6586V3.348Z" fill="white"/>
<path d="M62.4481 9.084C62.2001 9.084 61.9921 9 61.8241 8.832C61.6561 8.664 61.5721 8.456 61.5721 8.208C61.5721 7.96 61.6561 7.752 61.8241 7.584C61.9921 7.416 62.2001 7.332 62.4481 7.332C62.6881 7.332 62.8921 7.416 63.0601 7.584C63.2281 7.752 63.3121 7.96 63.3121 8.208C63.3121 8.456 63.2281 8.664 63.0601 8.832C62.8921 9 62.6881 9.084 62.4481 9.084Z" fill="#809AF7"/>
</svg>
